<svg xmlns="http://www.w3.org/2000/svg" width="17" height="17" viewBox="0 0 17 17" fill="none">
  <path d="M8.74996 13.4333H14.75M10.75 3.4333L12.75 5.4333M11.6673 2.51462C11.9327 2.24922 12.2926 2.10013 12.6679 2.10013C13.0433 2.10013 13.4032 2.24922 13.6686 2.51462C13.934 2.78001 14.0831 3.13996 14.0831 3.51528C14.0831 3.89061 13.934 4.25056 13.6686 4.51595L5.66194 12.5233C5.50334 12.6819 5.30729 12.7979 5.09194 12.8606L3.17728 13.4193C3.11991 13.436 3.0591 13.437 3.00122 13.4222C2.94333 13.4074 2.8905 13.3772 2.84824 13.335C2.80599 13.2927 2.77587 13.2399 2.76104 13.182C2.74621 13.1241 2.74721 13.0633 2.76394 13.006L3.32261 11.0913C3.38542 10.8762 3.50144 10.6804 3.65994 10.522L11.6673 2.51462Z" stroke="#6B7280" stroke-width="1.33" stroke-linecap="round" stroke-linejoin="round"/>
</svg>