<?xml version="1.0" encoding="UTF-8"?>
<svg width="17" height="17" viewBox="0 0 17 17" fill="none" xmlns="http://www.w3.org/2000/svg">
  <path d="M8.03853 14.2948H14.0385M10.0385 4.29484L12.0385 6.29484M10.9559 3.37616C11.2212 3.11077 11.5812 2.96167 11.9565 2.96167C12.3318 2.96167 12.6918 3.11077 12.9572 3.37616C13.2226 3.64155 13.3717 4.0015 13.3717 4.37683C13.3717 4.75215 13.2226 5.1121 12.9572 5.37749L4.95052 13.3848C4.79192 13.5434 4.59587 13.6594 4.38052 13.7222L2.46585 14.2808C2.40849 14.2976 2.34768 14.2986 2.28979 14.2837C2.2319 14.2689 2.17907 14.2388 2.13682 14.1965C2.09456 14.1543 2.06444 14.1014 2.04961 14.0436C2.03478 13.9857 2.03579 13.9249 2.05252 13.8675L2.61118 11.9528C2.674 11.7377 2.79002 11.5419 2.94852 11.3835L10.9559 3.37616Z" stroke="#111827" stroke-linecap="round" stroke-linejoin="round"/>
</svg> 