<svg width="16" height="16" viewBox="0 0 16 16" fill="none" xmlns="http://www.w3.org/2000/svg">
<path d="M6.00065 8.66669C6.36884 8.66669 6.66732 8.36821 6.66732 8.00002C6.66732 7.63183 6.36884 7.33335 6.00065 7.33335C5.63246 7.33335 5.33398 7.63183 5.33398 8.00002C5.33398 8.36821 5.63246 8.66669 6.00065 8.66669Z" stroke="#6B7280" stroke-width="1.33" stroke-linecap="round" stroke-linejoin="round"/>
<path d="M6.00065 4.00002C6.36884 4.00002 6.66732 3.70154 6.66732 3.33335C6.66732 2.96516 6.36884 2.66669 6.00065 2.66669C5.63246 2.66669 5.33398 2.96516 5.33398 3.33335C5.33398 3.70154 5.63246 4.00002 6.00065 4.00002Z" stroke="#6B7280" stroke-width="1.33" stroke-linecap="round" stroke-linejoin="round"/>
<path d="M6.00065 13.3334C6.36884 13.3334 6.66732 13.0349 6.66732 12.6667C6.66732 12.2985 6.36884 12 6.00065 12C5.63246 12 5.33398 12.2985 5.33398 12.6667C5.33398 13.0349 5.63246 13.3334 6.00065 13.3334Z" stroke="#6B7280" stroke-width="1.33" stroke-linecap="round" stroke-linejoin="round"/>
<path d="M10.0007 8.66669C10.3688 8.66669 10.6673 8.36821 10.6673 8.00002C10.6673 7.63183 10.3688 7.33335 10.0007 7.33335C9.63246 7.33335 9.33398 7.63183 9.33398 8.00002C9.33398 8.36821 9.63246 8.66669 10.0007 8.66669Z" stroke="#6B7280" stroke-width="1.33" stroke-linecap="round" stroke-linejoin="round"/>
<path d="M10.0007 4.00002C10.3688 4.00002 10.6673 3.70154 10.6673 3.33335C10.6673 2.96516 10.3688 2.66669 10.0007 2.66669C9.63246 2.66669 9.33398 2.96516 9.33398 3.33335C9.33398 3.70154 9.63246 4.00002 10.0007 4.00002Z" stroke="#6B7280" stroke-width="1.33" stroke-linecap="round" stroke-linejoin="round"/>
<path d="M10.0007 13.3334C10.3688 13.3334 10.6673 13.0349 10.6673 12.6667C10.6673 12.2985 10.3688 12 10.0007 12C9.63246 12 9.33398 12.2985 9.33398 12.6667C9.33398 13.0349 9.63246 13.3334 10.0007 13.3334Z" stroke="#6B7280" stroke-width="1.33" stroke-linecap="round" stroke-linejoin="round"/>
</svg>
