<svg width="56" height="56" viewBox="0 0 56 56" fill="none" xmlns="http://www.w3.org/2000/svg">
<path d="M0 28C0 12.536 12.536 0 28 0C43.464 0 56 12.536 56 28C56 43.464 43.464 56 28 56C12.536 56 0 43.464 0 28Z" fill="#1D4ED8"/>
<path d="M19.4327 41.6155C19.1343 41.6155 18.8482 41.4969 18.6372 41.286C18.4262 41.075 18.3077 40.7888 18.3077 40.4905V15.7405C18.3077 15.545 18.3586 15.3528 18.4555 15.183C18.5523 15.0132 18.6918 14.8715 18.8601 14.772C19.0283 14.6725 19.2196 14.6186 19.4151 14.6155C19.6106 14.6125 19.8035 14.6604 19.9748 14.7546L42.4748 27.1296C42.6513 27.2267 42.7986 27.3694 42.9011 27.5428C43.0036 27.7162 43.0577 27.914 43.0577 28.1154C43.0577 28.3169 43.0036 28.5146 42.9011 28.688C42.7986 28.8614 42.6513 29.0041 42.4748 29.1012L19.9748 41.4762C19.8087 41.5675 19.6222 41.6154 19.4327 41.6155Z" fill="#F9FAFB"/>
</svg>
