<svg width="37" height="36" viewBox="0 0 37 36" fill="none" xmlns="http://www.w3.org/2000/svg">
<path d="M10.1045 31.6154C9.80612 31.6154 9.51998 31.4969 9.309 31.2859C9.09802 31.075 8.97949 30.7888 8.97949 30.4904V5.74044C8.97948 5.54494 9.03041 5.3528 9.12727 5.18298C9.22414 5.01316 9.36358 4.87151 9.53187 4.772C9.70015 4.67248 9.89146 4.61854 10.0869 4.61549C10.2824 4.61244 10.4753 4.66039 10.6466 4.7546L33.1466 17.1296C33.3232 17.2267 33.4704 17.3694 33.5729 17.5428C33.6754 17.7162 33.7295 17.9139 33.7295 18.1154C33.7295 18.3168 33.6754 18.5146 33.5729 18.688C33.4704 18.8614 33.3232 19.0041 33.1466 19.1012L10.6466 31.4762C10.4805 31.5675 10.294 31.6154 10.1045 31.6154Z" fill="#F9FAFB"/>
</svg>
