<svg xmlns="http://www.w3.org/2000/svg" width="17" height="17" viewBox="0 0 17 17" fill="none">
  <g clip-path="url(#clip0_19691_271)">
    <path d="M5.41667 7.43332V4.76665C5.41667 3.8826 5.76786 3.03475 6.39298 2.40963C7.0181 1.78451 7.86595 1.43332 8.75 1.43332C9.63406 1.43332 10.4819 1.78451 11.107 2.40963C11.7321 3.03475 12.0833 3.8826 12.0833 4.76665V7.43332M4.08333 7.43332H13.4167C14.153 7.43332 14.75 8.03027 14.75 8.76665V13.4333C14.75 14.1697 14.153 14.7667 13.4167 14.7667H4.08333C3.34695 14.7667 2.75 14.1697 2.75 13.4333V8.76665C2.75 8.03027 3.34695 7.43332 4.08333 7.43332Z" stroke="#6B7280" stroke-width="1.33" stroke-linecap="round" stroke-linejoin="round"/>
  </g>
  <defs>
    <clipPath id="clip0_19691_271">
      <rect width="16" height="16" fill="white" transform="translate(0.75 0.0999756)"/>
    </clipPath>
  </defs>
</svg>