<svg xmlns="http://www.w3.org/2000/svg" width="17" height="17" viewBox="0 0 17 17" fill="none">
  <g clip-path="url(#clip0_19664_291)">
    <path d="M6.47673 9.10666L11.0301 11.76M11.0234 4.43999L6.47673 7.09333M14.75 3.43332C14.75 4.53789 13.8546 5.43332 12.75 5.43332C11.6454 5.43332 10.75 4.53789 10.75 3.43332C10.75 2.32875 11.6454 1.43332 12.75 1.43332C13.8546 1.43332 14.75 2.32875 14.75 3.43332ZM6.75 8.09999C6.75 9.20456 5.85457 10.1 4.75 10.1C3.64543 10.1 2.75 9.20456 2.75 8.09999C2.75 6.99542 3.64543 6.09999 4.75 6.09999C5.85457 6.09999 6.75 6.99542 6.75 8.09999ZM14.75 12.7667C14.75 13.8712 13.8546 14.7667 12.75 14.7667C11.6454 14.7667 10.75 13.8712 10.75 12.7667C10.75 11.6621 11.6454 10.7667 12.75 10.7667C13.8546 10.7667 14.75 11.6621 14.75 12.7667Z" stroke="#6B7280" stroke-width="1.33" stroke-linecap="round" stroke-linejoin="round"/>
  </g>
  <defs>
    <clipPath id="clip0_19664_291">
      <rect width="16" height="16" fill="white" transform="translate(0.75 0.0999756)"/>
    </clipPath>
  </defs>
</svg>