<?xml version="1.0" encoding="UTF-8"?>
<svg width="17" height="17" viewBox="0 0 17 17" fill="none" xmlns="http://www.w3.org/2000/svg">
  <path d="M8.19259 9.62813C8.56078 9.62813 8.85925 9.32966 8.85925 8.96147C8.85925 8.59328 8.56078 8.2948 8.19259 8.2948C7.8244 8.2948 7.52592 8.59328 7.52592 8.96147C7.52592 9.32966 7.8244 9.62813 8.19259 9.62813Z" stroke="#111827" stroke-linecap="round" stroke-linejoin="round"/>
  <path d="M12.8593 9.62813C13.2274 9.62813 13.5259 9.32966 13.5259 8.96147C13.5259 8.59328 13.2274 8.2948 12.8593 8.2948C12.4911 8.2948 12.1926 8.59328 12.1926 8.96147C12.1926 9.32966 12.4911 9.62813 12.8593 9.62813Z" stroke="#111827" stroke-linecap="round" stroke-linejoin="round"/>
  <path d="M3.52592 9.62813C3.89411 9.62813 4.19259 9.32966 4.19259 8.96147C4.19259 8.59328 3.89411 8.2948 3.52592 8.2948C3.15773 8.2948 2.85925 8.59328 2.85925 8.96147C2.85925 9.32966 3.15773 9.62813 3.52592 9.62813Z" stroke="#111827" stroke-linecap="round" stroke-linejoin="round"/>
</svg> 